<?xml version="1.0" encoding="utf-8"?>
<!-- Generator: Adobe Illustrator 25.3.1, SVG Export Plug-In . SVG Version: 6.00 Build 0)  -->
<svg version="1.1" id="Layer_1" xmlns="http://www.w3.org/2000/svg" xmlns:xlink="http://www.w3.org/1999/xlink" x="0px" y="0px"
	 viewBox="0 0 300 300" style="enable-background:new 0 0 300 300;" xml:space="preserve">
<style type="text/css">
	.st0{fill:#070114;}
	.st1{fill:#393151;}
</style>
<g>
	<rect x="0.5" y="0.5" class="st0" width="299" height="299"/>
	<path d="M299,1v298H1V1H299 M300,0H0v300h300V0L300,0z"/>
</g>
<g>
	<circle class="st1" cx="150" cy="150" r="83.5"/>
	<path d="M150,67c45.77,0,83,37.23,83,83s-37.23,83-83,83s-83-37.23-83-83S104.23,67,150,67 M150,66c-46.39,0-84,37.61-84,84
		s37.61,84,84,84s84-37.61,84-84S196.39,66,150,66L150,66z"/>
</g>
<g>
	<path class="st1" d="M38.5,298.5c0.17-21.12,10.8-35.66,32.49-44.43c17.82-7.21,42.92-10.57,79.01-10.57
		c36.09,0,61.19,3.36,79.01,10.57c21.69,8.78,32.33,23.32,32.49,44.43H38.5z"/>
	<path d="M150,244c36.02,0,61.07,3.35,78.82,10.53c21.31,8.62,31.84,22.85,32.17,43.47H39.01c0.33-20.62,10.86-34.85,32.17-43.47
		C88.93,247.35,113.98,244,150,244 M150,243c-61.86,0-112,9.61-112,56h224C262,252.61,211.86,243,150,243L150,243z"/>
</g>
</svg>
